<?xml version="1.0" encoding="utf-8"?>
<!-- Generator: Adobe Illustrator 21.1.0, SVG Export Plug-In . SVG Version: 6.00 Build 0)  -->
<svg version="1.1" id="Layer_1" xmlns="http://www.w3.org/2000/svg" xmlns:xlink="http://www.w3.org/1999/xlink" x="0px" y="0px"
	 viewBox="0 0 100 100" style="enable-background:new 0 0 100 100;" xml:space="preserve">
<style type="text/css">
	.st0{display:none;}
	.st1{display:inline;fill:#6D6E70;}
	.st2{display:inline;fill:#1DB14B;}
	.st3{display:inline;}
	.st4{fill:none;stroke:#FFFFFF;stroke-width:1.5691;stroke-linecap:round;stroke-miterlimit:10;}
	.st5{fill:none;stroke:#FFFFFF;stroke-width:1.5691;stroke-linecap:round;stroke-linejoin:round;stroke-miterlimit:10;}
	.st6{display:inline;fill:#E73E4A;}
	.st7{fill:#FFFFFF;}
	.st8{font-family:'Calibri-Light';}
	.st9{font-size:28.2784px;}
	.st10{fill:#E44F5A;}
	.st11{font-family:'Calibri-Bold';}
	.st12{display:inline;fill:none;stroke:#FFFFFF;stroke-width:1.5691;stroke-miterlimit:10;}
	.st13{fill:#6D6E70;}
	.st14{fill:#FAAF40;}
	.st15{display:inline;fill:none;stroke:#FFFFFF;stroke-width:1.5691;stroke-linecap:round;stroke-miterlimit:10;}
	
		.st16{display:inline;fill:none;stroke:#FFFFFF;stroke-width:1.5691;stroke-linecap:round;stroke-linejoin:round;stroke-miterlimit:10;}
	.st17{fill:#1DB14B;}
	.st18{fill:none;stroke:#FFFFFF;stroke-width:2.7397;stroke-linecap:round;stroke-miterlimit:10;}
	.st19{fill:none;stroke:#FFFFFF;stroke-width:2.7397;stroke-linecap:round;stroke-linejoin:round;stroke-miterlimit:10;}
</style>
<g id="RECORD" class="st0">
	<path class="st1" d="M252,17.5h-397.8c-15.8,0-28.6-12.8-28.6-28.6v0c0-15.8,12.8-28.6,28.6-28.6H252c15.8,0,28.6,12.8,28.6,28.6v0
		C280.6,4.7,267.8,17.5,252,17.5z"/>
	<path class="st2" d="M-147.4,17.5L-147.4,17.5c-15.8,0-28.6-12.8-28.6-28.6v0c0-15.8,12.8-28.6,28.6-28.6h0
		c15.8,0,28.6,12.8,28.6,28.6v0C-118.7,4.7-131.5,17.5-147.4,17.5z"/>
	<g id="mic_1_" class="st3">
		<path class="st4" d="M-147.4-5.5L-147.4-5.5c-3.6,0-6.6-3-6.6-6.6v-11.2c0-3.6,3-6.6,6.6-6.6h0c3.6,0,6.6,3,6.6,6.6v11.2
			C-140.8-8.5-143.7-5.5-147.4-5.5z"/>
		<path class="st5" d="M-135.9-13.9c0,6.3-5.1,11.4-11.4,11.4c-6.3,0-11.4-5.1-11.4-11.4"/>
		<line class="st5" x1="-147.4" y1="-2.5" x2="-147.4" y2="6.9"/>
		<line class="st5" x1="-158.3" y1="6.9" x2="-136.4" y2="6.9"/>
	</g>
	<text transform="matrix(1 3.050000e-03 -3.050000e-03 1 -104.3195 -1.6182)"><tspan x="0" y="0" class="st8 st9" style="display:inline;fill:#FFFFFF;">You say: </tspan><tspan x="99.6" y="0" class="st11 st9" style="display:inline;fill:#FFFFFF;">go to email address</tspan></text>
</g>
<g id="ERROR" class="st0">
	<path class="st1" d="M252,94.2h-397.8c-15.8,0-28.6-12.8-28.6-28.6v0c0-15.8,12.8-28.6,28.6-28.6H252c15.8,0,28.6,12.8,28.6,28.6v0
		C280.6,81.3,267.8,94.2,252,94.2z"/>
	<path class="st6" d="M-147.4,94.2L-147.4,94.2c-15.8,0-28.6-12.8-28.6-28.6v0c0-15.8,12.8-28.6,28.6-28.6h0
		c15.8,0,28.6,12.8,28.6,28.6v0C-118.7,81.3-131.5,94.2-147.4,94.2z"/>
	<text transform="matrix(1 3.050000e-03 -3.050000e-03 1 -104.3198 75.0085)" class="st3"><tspan x="0" y="0" class="st7 st8 st9">System is </tspan><tspan x="111.8" y="0" class="st10 st11 st9">off</tspan></text>
	<path class="st12" d="M-133,64.2l-23.3-13.5c-1-0.6-2.3,0.1-2.3,1.3V79c0,1.2,1.3,1.9,2.3,1.3l23.3-13.5
		C-132,66.3-132,64.8-133,64.2z"/>
</g>
<g id="RECORD_1_" class="st0">
	<path class="st13" d="M252-59.1h-397.8c-15.8,0-28.6-12.8-28.6-28.6v0c0-15.8,12.8-28.6,28.6-28.6H252c15.8,0,28.6,12.8,28.6,28.6
		v0C280.6-71.9,267.8-59.1,252-59.1z"/>
	<path class="st14" d="M-147.4-59.1L-147.4-59.1c-15.8,0-28.6-12.8-28.6-28.6v0c0-15.8,12.8-28.6,28.6-28.6h0
		c15.8,0,28.6,12.8,28.6,28.6v0C-118.7-71.9-131.5-59.1-147.4-59.1z"/>
	<g id="mic_2_">
		<path class="st15" d="M-147.4-82.1L-147.4-82.1c-3.6,0-6.6-3-6.6-6.6v-11.2c0-3.6,3-6.6,6.6-6.6h0c3.6,0,6.6,3,6.6,6.6v11.2
			C-140.8-85.1-143.7-82.1-147.4-82.1z"/>
		<path class="st16" d="M-135.9-90.5c0,6.3-5.1,11.4-11.4,11.4c-6.3,0-11.4-5.1-11.4-11.4"/>
		<line class="st16" x1="-147.4" y1="-79.1" x2="-147.4" y2="-69.7"/>
		<line class="st16" x1="-158.3" y1="-69.7" x2="-136.4" y2="-69.7"/>
	</g>
	<text transform="matrix(1 3.050000e-03 -3.050000e-03 1 -104.3191 -78.2449)" class="st14 st8 st9">Some system error</text>
</g>
<g>
	<path class="st17" d="M50,100L50,100C22.4,100,0,77.6,0,50v0C0,22.4,22.4,0,50,0l0,0c27.6,0,50,22.4,50,50v0
		C100,77.6,77.6,100,50,100z"/>
	<g id="mic_3_">
		<path class="st18" d="M50,59.7L50,59.7c-6.4,0-11.5-5.2-11.5-11.5V28.7c0-6.4,5.2-11.5,11.5-11.5h0c6.4,0,11.5,5.2,11.5,11.5v19.5
			C61.5,54.6,56.4,59.7,50,59.7z"/>
		<path class="st19" d="M70,45.1c0,11-8.9,20-20,20s-20-8.9-20-20"/>
		<line class="st19" x1="50" y1="65.1" x2="50" y2="81.5"/>
		<line class="st19" x1="30.9" y1="81.5" x2="69.1" y2="81.5"/>
	</g>
</g>
</svg>
