<svg id="Layer_1" data-name="Layer 1" xmlns="http://www.w3.org/2000/svg" xmlns:xlink="http://www.w3.org/1999/xlink" viewBox="0 0 50 50"><defs><style>.cls-1{fill:none;}.cls-2{fill:url(#linear-gradient);}.cls-3{fill:url(#linear-gradient-2);}.cls-4{fill:#e990bc;}.cls-5{fill:url(#linear-gradient-3);}</style><linearGradient id="linear-gradient" x1="13.76" y1="6.32" x2="13.76" y2="49.62" gradientUnits="userSpaceOnUse"><stop offset="0" stop-color="#2b388f"/><stop offset="0.02" stop-color="#2b3e93"/><stop offset="0.14" stop-color="#2b60ac"/><stop offset="0.27" stop-color="#2a7cbf"/><stop offset="0.41" stop-color="#2a91cf"/><stop offset="0.56" stop-color="#2aa0da"/><stop offset="0.74" stop-color="#2aa9e0"/><stop offset="1" stop-color="#2aace2"/></linearGradient><linearGradient id="linear-gradient-2" x1="7.35" y1="12.69" x2="43.76" y2="12.69" gradientUnits="userSpaceOnUse"><stop offset="0" stop-color="#2aace2"/><stop offset="0.26" stop-color="#2aa9e0"/><stop offset="0.44" stop-color="#2aa0da"/><stop offset="0.59" stop-color="#2a91cf"/><stop offset="0.73" stop-color="#2a7cbf"/><stop offset="0.86" stop-color="#2b60ac"/><stop offset="0.98" stop-color="#2b3e93"/><stop offset="1" stop-color="#2b388f"/></linearGradient><linearGradient id="linear-gradient-3" x1="33.44" y1="49.17" x2="33.44" y2="7.35" xlink:href="#linear-gradient"/></defs><title>Vocs_ui_logo</title><rect class="cls-1" width="50" height="50"/><path class="cls-2" d="M27.14,49.12a.41.41,0,0,0-.3-.35,24.63,24.63,0,0,1-9.6-42.44,0,0,0,0,0,0,0A24.55,24.55,0,0,0,5.78,10.17a4.94,4.94,0,0,0-1.46,1.46,24.63,24.63,0,0,0,22,38l.49,0a.41.41,0,0,0,.37-.44Z" transform="translate(0)"/><path class="cls-3" d="M7.59,7.59l0,0a.69.69,0,0,0,.8,1.11A24.64,24.64,0,0,1,43.05,25,24.66,24.66,0,0,0,40,6,5.72,5.72,0,0,0,38.19,4.2,24.64,24.64,0,0,0,7.59,7.59Z" transform="translate(0)"/><path class="cls-4" d="M39.23,45.11h0Z" transform="translate(0)"/><path class="cls-5" d="M42.41,7.58l0,0a.69.69,0,0,0-1.11.8,24.63,24.63,0,0,1-24,35.33A24.55,24.55,0,0,0,27.9,49a5.63,5.63,0,0,0,2.45,0A24.63,24.63,0,0,0,42.41,7.58Z" transform="translate(0)"/></svg>