<?xml version="1.0" encoding="utf-8"?>
<!-- Generator: Adobe Illustrator 21.1.0, SVG Export Plug-In . SVG Version: 6.00 Build 0)  -->
<svg version="1.1" id="Layer_1" xmlns="http://www.w3.org/2000/svg" xmlns:xlink="http://www.w3.org/1999/xlink" x="0px" y="0px"
	 viewBox="0 0 5000 5000" style="enable-background:new 0 0 5000 5000;" xml:space="preserve">
<style type="text/css">
	.st0{display:none;}
	.st1{display:inline;fill:url(#SVGID_1_);}
	.st2{display:none;fill:#414042;}
	.st3{fill:url(#SVGID_2_);}
	.st4{fill:url(#SVGID_3_);}
	.st5{fill:url(#SVGID_4_);}
</style>
<g>
	<g class="st0">
		<radialGradient id="SVGID_1_" cx="2493.7361" cy="2520.8982" r="2449.4409" gradientUnits="userSpaceOnUse">
			<stop  offset="8.108108e-03" style="stop-color:#000000"/>
			<stop  offset="0.126" style="stop-color:#111111"/>
			<stop  offset="0.2497" style="stop-color:#2E2F32"/>
			<stop  offset="0.3761" style="stop-color:#42474D"/>
			<stop  offset="0.5045" style="stop-color:#515C66"/>
			<stop  offset="0.6343" style="stop-color:#5B7081"/>
			<stop  offset="0.7653" style="stop-color:#5E86A0"/>
			<stop  offset="0.8948" style="stop-color:#549BC3"/>
			<stop  offset="1" style="stop-color:#2AACE2"/>
		</radialGradient>
		<path class="st1" d="M2493.7,71.5C1140.9,71.5,44.3,1168.1,44.3,2520.9s1096.7,2449.4,2449.4,2449.4s2449.4-1096.7,2449.4-2449.4
			S3846.5,71.5,2493.7,71.5z M2493.7,4193.7c-923.8,0-1672.8-748.9-1672.8-1672.8S1569.9,848.1,2493.7,848.1
			s1672.8,748.9,1672.8,1672.8S3417.6,4193.7,2493.7,4193.7z"/>
	</g>
	<circle class="st2" cx="2493.7" cy="2520.9" r="2421.5"/>
	<linearGradient id="SVGID_2_" gradientUnits="userSpaceOnUse" x1="1456.0679" y1="4970.3389" x2="1456.0679" y2="663.5253">
		<stop  offset="0" style="stop-color:#2AACE2"/>
		<stop  offset="0.3888" style="stop-color:#2AAAE2"/>
		<stop  offset="0.5289" style="stop-color:#2AA6DE"/>
		<stop  offset="0.6287" style="stop-color:#2A9FD8"/>
		<stop  offset="0.7094" style="stop-color:#2B95D0"/>
		<stop  offset="0.7786" style="stop-color:#2B88C5"/>
		<stop  offset="0.8399" style="stop-color:#2C79BA"/>
		<stop  offset="0.8953" style="stop-color:#2A68AD"/>
		<stop  offset="0.9462" style="stop-color:#2954A0"/>
		<stop  offset="0.9916" style="stop-color:#2A3E92"/>
		<stop  offset="1" style="stop-color:#2B3990"/>
	</linearGradient>
	<path class="st3" d="M909.2,2536.2c0-750.8,337.5-1422.7,869.1-1872.4c0.1-0.1,0-0.2-0.1-0.2c-441.4,13.8-879.7,146.3-1263.3,397.2
		c0,0,0,0-0.1,0.1C234.1,1439.8,60,1902.4,37.1,2404.6c-64.1,1401.1,1072.6,2580.1,2475,2565.6l365.6-10.8
		C1684.6,4793.8,909.2,3774.8,909.2,2536.2z"/>
	<linearGradient id="SVGID_3_" gradientUnits="userSpaceOnUse" x1="493.842" y1="1336.6014" x2="4349.9004" y2="1336.6014">
		<stop  offset="0" style="stop-color:#27AAE1"/>
		<stop  offset="0.2155" style="stop-color:#28A8E0"/>
		<stop  offset="0.3609" style="stop-color:#28A3DB"/>
		<stop  offset="0.4856" style="stop-color:#2899D4"/>
		<stop  offset="0.5987" style="stop-color:#2A8DC9"/>
		<stop  offset="0.7039" style="stop-color:#2B7DBD"/>
		<stop  offset="0.8034" style="stop-color:#2A6BB0"/>
		<stop  offset="0.8982" style="stop-color:#2956A1"/>
		<stop  offset="0.9872" style="stop-color:#2A3D92"/>
		<stop  offset="1" style="stop-color:#2B3990"/>
	</linearGradient>
	<path class="st4" d="M3574.4,1395.5c343.6,343.6,566.4,764.4,663.4,1206.2c216.4-707.7,122-1429-305.2-2047.8
		c-960-714-2323.5-635.5-3194.6,235.6c-93.4,93.4-169,196.3-244.2,300C1446.1,456.3,2734.7,555.8,3574.4,1395.5z"/>
	<g>
		<linearGradient id="SVGID_4_" gradientUnits="userSpaceOnUse" x1="1668.9116" y1="2756.6377" x2="4953" y2="2756.6377">
			<stop  offset="0" style="stop-color:#2B3990"/>
			<stop  offset="1.691639e-02" style="stop-color:#2A3E93"/>
			<stop  offset="0.1055" style="stop-color:#2A58A2"/>
			<stop  offset="0.2" style="stop-color:#2B6CB1"/>
			<stop  offset="0.299" style="stop-color:#2C7EBE"/>
			<stop  offset="0.4038" style="stop-color:#2B8ECB"/>
			<stop  offset="0.5164" style="stop-color:#2A9BD5"/>
			<stop  offset="0.6406" style="stop-color:#2AA4DC"/>
			<stop  offset="0.7854" style="stop-color:#2AAAE1"/>
			<stop  offset="1" style="stop-color:#2AACE2"/>
		</linearGradient>
		<path class="st5" d="M4593.2,1271.7c-183.3-295.1-405.8-532.9-660.6-717.8c0,0,0,0,0,0c633.2,952.3,525.1,2247.4-314.6,3087.1
			c-526.7,526.7-1260.4,802.8-1949.1,750.1c300.5,327.5,768.8,506.9,1208.8,568.3c654.4-104.1,1274.7-473.7,1687-1109.4
			C5070.9,3069.4,5084,2062.1,4593.2,1271.7z"/>
	</g>
</g>
</svg>
