<?xml version="1.0" encoding="utf-8"?>
<!-- Generator: Adobe Illustrator 21.1.0, SVG Export Plug-In . SVG Version: 6.00 Build 0)  -->
<svg version="1.1" id="Layer_1" xmlns="http://www.w3.org/2000/svg" xmlns:xlink="http://www.w3.org/1999/xlink" x="0px" y="0px"
	 viewBox="0 0 100 100" style="enable-background:new 0 0 100 100;" xml:space="preserve">
<style type="text/css">
	.st0{fill:#31D36B;}
	.st1{display:none;}
	.st2{display:inline;fill:#F25C67;}
</style>
<g>
	<path class="st0" d="M12.2,94.3c0,0-0.6,0-0.6-0.6V6.3c0-0.5,0.6-0.6,0.6-0.6c0.1,0,0.1,0,0.3,0.1l75.7,43.7c0.1,0,0.3,0.2,0.3,0.5
		s-0.2,0.4-0.3,0.5L12.4,94.2C12.3,94.2,12.2,94.3,12.2,94.3z"/>
	<path class="st0" d="M17,14.7L78.1,50L17,85.3V14.7 M12.2,0.3c-3.1,0-6,2.5-6,6v87.4c0,3.5,2.9,6,6,6c1,0,2-0.3,3-0.8l75.7-43.7
		c4-2.3,4-8,0-10.3L15.1,1.2C14.2,0.6,13.2,0.3,12.2,0.3L12.2,0.3z"/>
</g>
<g class="st1">
	<path class="st2" d="M93,100H7c-3.9,0-7-3.1-7-7V7c0-3.9,3.1-7,7-7h86c3.9,0,7,3.1,7,7v86C100,96.9,96.9,100,93,100z"/>
</g>
</svg>
