<?xml version="1.0" encoding="utf-8"?>
<!-- Generator: Adobe Illustrator 21.1.0, SVG Export Plug-In . SVG Version: 6.00 Build 0)  -->
<svg version="1.1" id="Layer_1" xmlns="http://www.w3.org/2000/svg" xmlns:xlink="http://www.w3.org/1999/xlink" x="0px" y="0px"
	 viewBox="0 0 100 100" style="enable-background:new 0 0 100 100;" xml:space="preserve">
<style type="text/css">
	.st0{display:none;}
	.st1{display:inline;fill:#31D36B;}
	.st2{fill:#F25C67;}
</style>
<g class="st0">
	<path class="st1" d="M15.6,90.7c-0.3,0-1-0.2-1-1V10.3c0-0.7,0.7-1,1-1c0.2,0,0.3,0,0.5,0.1l68.7,39.7c0.3,0.2,0.5,0.5,0.5,0.8
		s-0.2,0.6-0.5,0.8L16.1,90.5C15.9,90.6,15.8,90.7,15.6,90.7C15.6,90.7,15.6,90.7,15.6,90.7z"/>
	<path class="st1" d="M19.7,17.3L76.3,50L19.7,82.7V17.3 M15.6,4.3c-3.1,0-6,2.5-6,6v79.4c0,3.5,2.9,6,6,6c1,0,2-0.3,3-0.8
		l68.7-39.7c4-2.3,4-8,0-10.3L18.6,5.2C17.6,4.6,16.6,4.3,15.6,4.3L15.6,4.3z"/>
</g>
<g>
	<path class="st2" d="M93,100H7c-3.9,0-7-3.1-7-7V7c0-3.9,3.1-7,7-7h86c3.9,0,7,3.1,7,7v86C100,96.9,96.9,100,93,100z"/>
</g>
</svg>
