<?xml version="1.0" encoding="utf-8"?>
<!-- Generator: Adobe Illustrator 21.1.0, SVG Export Plug-In . SVG Version: 6.00 Build 0)  -->
<svg version="1.1" id="Layer_1" xmlns="http://www.w3.org/2000/svg" xmlns:xlink="http://www.w3.org/1999/xlink" x="0px" y="0px"
	 viewBox="0 0 50 50" style="enable-background:new 0 0 50 50;" xml:space="preserve">
<style type="text/css">
	.st0{display:none;}
	.st1{display:inline;}
	.st2{fill:url(#SVGID_1_);stroke:#999999;stroke-linecap:round;stroke-miterlimit:10;}
	.st3{fill:url(#SVGID_2_);stroke:#999999;stroke-linecap:round;stroke-miterlimit:10;}
	.st4{display:inline;fill:none;stroke:#999999;stroke-linecap:round;stroke-miterlimit:10;}
	.st5{fill:url(#SVGID_3_);}
	.st6{fill:#00ADEE;}
	.st7{fill:#6D6E70;}
	.st8{fill:#CCCCCC;}
	.st9{fill:url(#SVGID_4_);stroke:#999999;stroke-width:2;stroke-miterlimit:10;}
	.st10{fill:url(#SVGID_5_);stroke:#999999;stroke-miterlimit:10;}
	.st11{fill:none;stroke:#6E6E6E;stroke-width:2;stroke-linecap:round;stroke-miterlimit:10;}
	.st12{fill:#6E6E6E;}
	.st13{fill:none;stroke:#E6E7E8;stroke-width:1.5691;stroke-linecap:round;stroke-miterlimit:10;}
	.st14{fill:none;stroke:#E6E7E8;stroke-width:1.5691;stroke-linecap:round;stroke-linejoin:round;stroke-miterlimit:10;}
	.st15{fill:url(#SVGID_6_);}
	.st16{fill:url(#SVGID_7_);stroke:#999999;stroke-width:2;stroke-miterlimit:10;}
	.st17{fill:url(#SVGID_8_);stroke:#999999;stroke-miterlimit:10;}
	.st18{fill:url(#SVGID_9_);}
	.st19{fill:#E73E4A;stroke:#999999;stroke-width:2;stroke-miterlimit:10;}
	.st20{fill:url(#SVGID_10_);stroke:#999999;stroke-miterlimit:10;}
	.st21{display:inline;fill:none;stroke:#E73E4A;stroke-width:1.5691;stroke-linecap:round;stroke-miterlimit:10;}
	.st22{display:inline;fill:none;stroke:#FFFFFF;stroke-width:1.5691;stroke-linecap:round;stroke-miterlimit:10;}
	.st23{display:inline;fill:none;stroke:#00D7FE;stroke-width:1.5691;stroke-linecap:round;stroke-miterlimit:10;}
	
		.st24{display:inline;fill:none;stroke:#00D7FE;stroke-width:1.5691;stroke-linecap:round;stroke-linejoin:round;stroke-miterlimit:10;}
	.st25{display:none;fill:none;}
	.st26{display:none;fill:none;stroke:#FFFFFF;stroke-width:1.5691;stroke-linecap:round;stroke-miterlimit:10;}
	.st27{display:none;fill:none;stroke:#E6E7E8;stroke-width:1.5691;stroke-linecap:round;stroke-miterlimit:10;}
	.st28{display:inline;fill:none;stroke:#00D7FE;stroke-width:3;stroke-linecap:round;stroke-linejoin:round;stroke-miterlimit:10;}
	.st29{display:inline;fill:url(#SVGID_11_);}
	.st30{fill:url(#SVGID_12_);}
	.st31{fill:#E990BC;}
	.st32{fill:url(#SVGID_13_);}
	.st33{display:none;fill:none;stroke:#00D7FE;stroke-width:3;stroke-linecap:round;stroke-linejoin:round;stroke-miterlimit:10;}
	
		.st34{display:inline;fill:#00D7FE;stroke:#00D7FE;stroke-width:3;stroke-linecap:round;stroke-linejoin:round;stroke-miterlimit:10;}
	.st35{fill:none;stroke:#00D7FE;stroke-width:3;stroke-linecap:round;stroke-linejoin:round;stroke-miterlimit:10;}
</style>
<g class="st0">
	<g class="st1">
		<linearGradient id="SVGID_1_" gradientUnits="userSpaceOnUse" x1="-77.5842" y1="202.5313" x2="-77.5842" y2="186.9735">
			<stop  offset="0" style="stop-color:#BBBDBF"/>
			<stop  offset="1" style="stop-color:#E6E7E8"/>
		</linearGradient>
		<path class="st2" d="M-62.1,202.5l-14.5-15.3c-0.4-0.4-1-0.4-1.4,0l-15,15.3"/>
		<linearGradient id="SVGID_2_" gradientUnits="userSpaceOnUse" x1="107.4469" y1="239.886" x2="107.4469" y2="201.9645">
			<stop  offset="0" style="stop-color:#E6E7E8"/>
			<stop  offset="1" style="stop-color:#BBBDBF"/>
		</linearGradient>
		<path class="st3" d="M-61.8,202H325c1.6,0,3,1.3,3,3v32c0,1.6-1.3,3-3,3h-435.1c-1.6,0-3-1.3-3-3v-32c0-1.6,1.3-3,3-3H-93"/>
		<text transform="matrix(1 0 0 1 -102.0842 228.973)" class="st7" style="font-family:'Calibri'; font-size:28px;">click not existing button</text>
	</g>
	<line class="st4" x1="-96.8" y1="202" x2="-92.3" y2="202"/>
	<line class="st4" x1="-63.1" y1="202" x2="-58.1" y2="202"/>
</g>
<g class="st0">
	<g class="st1">
		<linearGradient id="SVGID_3_" gradientUnits="userSpaceOnUse" x1="-374.5536" y1="184.5313" x2="-374.5536" y2="111.9102">
			<stop  offset="0" style="stop-color:#FFFFFF"/>
			<stop  offset="1" style="stop-color:#E6E6E6"/>
		</linearGradient>
		<path class="st5" d="M-559.7,184.5c-20,0-36.3-16.3-36.3-36.3s16.3-36.3,36.3-36.3h395.9c6,0,10.8,4.8,10.8,10.8v51
			c0,6-4.8,10.8-10.8,10.8H-559.7z"/>
		<path class="st6" d="M-163.9,113.4c5.1,0,9.3,4.2,9.3,9.3v51c0,5.1-4.2,9.3-9.3,9.3h-395.9c-19.2,0-34.8-15.6-34.8-34.8v0
			c0-19.2,15.6-34.8,34.8-34.8H-163.9 M-163.9,110.4h-395.9c-20.8,0-37.8,17-37.8,37.8c0,20.8,17,37.8,37.8,37.8h395.9
			c6.8,0,12.3-5.5,12.3-12.3v-51C-151.6,115.9-157.1,110.4-163.9,110.4L-163.9,110.4z"/>
	</g>
	<g class="st1">
		<path class="st7" d="M-489.6,179.2c-2.8,0-5-2.2-5-5v-51.5c0-2.8,2.2-5,5-5h325.6c2.8,0,5,2.2,5,5v51.5c0,2.8-2.2,5-5,5H-489.6z"
			/>
		<path class="st8" d="M-163.9,118.7c2.2,0,4,1.8,4,4v51.5c0,2.2-1.8,4-4,4h-325.6c-2.2,0-4-1.8-4-4v-51.5c0-2.2,1.8-4,4-4H-163.9
			 M-163.9,116.7h-325.6c-3.3,0-6,2.7-6,6v51.5c0,3.3,2.7,6,6,6h325.6c3.3,0,6-2.7,6-6v-51.5C-157.9,119.4-160.6,116.7-163.9,116.7
			L-163.9,116.7z"/>
	</g>
	<g class="st1">
		<linearGradient id="SVGID_4_" gradientUnits="userSpaceOnUse" x1="-590.3239" y1="148.3557" x2="-528.7834" y2="148.3557">
			<stop  offset="0" style="stop-color:#22B573"/>
			<stop  offset="1" style="stop-color:#75CFB7"/>
		</linearGradient>
		<path class="st9" d="M-559.6,179.1L-559.6,179.1c-17,0-30.8-13.8-30.8-30.8v0c0-17,13.8-30.8,30.8-30.8h0
			c17,0,30.8,13.8,30.8,30.8v0C-528.8,165.3-542.6,179.1-559.6,179.1z"/>
	</g>
	<g class="st1">
		<linearGradient id="SVGID_5_" gradientUnits="userSpaceOnUse" x1="-512.553" y1="146.5313" x2="-512.553" y2="117.6097">
			<stop  offset="0" style="stop-color:#E6E7E8"/>
			<stop  offset="1" style="stop-color:#BBBDBF"/>
		</linearGradient>
		<path class="st10" d="M-506,146.5h-13.1c-1.6,0-3-1.3-3-3v-23c0-1.6,1.3-3,3-3h13.1c1.6,0,3,1.3,3,3v23
			C-503.1,145.2-504.4,146.5-506,146.5z"/>
		<text transform="matrix(1 0 0 1 -517.0842 140.3278)" class="st7" style="font-family:'ScriptMTBold'; font-size:28px;">i</text>
	</g>
	<g class="st1">
		<path class="st11" d="M-514.1,178.5c-5.5,0-10-4.5-10-10s4.5-10,10-10c5.5,0,10,4.5,10,10"/>
		<path class="st12" d="M-504.1,171.3l2.9-5.4c0.2-0.4-0.1-0.9-0.5-0.9h-5.8c-0.5,0-0.8,0.5-0.5,0.9l2.9,5.4
			C-504.9,171.8-504.3,171.8-504.1,171.3z"/>
	</g>
	
		<text transform="matrix(1 3.050000e-03 -3.050000e-03 1 -482.8731 140.413)" style="display:inline;fill:#FFFFFF; font-family:'Calibri-BoldItalic'; font-size:20px;">System is active</text>
	
		<text transform="matrix(1 3.050000e-03 -3.050000e-03 1 -482.8731 167.413)" style="display:inline;fill:#F2F2F2; font-family:'Calibri'; font-size:20px;">Say somthing to start</text>
	<g id="mic_4_" class="st1">
		<path class="st13" d="M-559.9,154.5L-559.9,154.5c-3.6,0-6.6-3-6.6-6.6v-11.2c0-3.6,3-6.6,6.6-6.6l0,0c3.6,0,6.6,3,6.6,6.6v11.2
			C-553.3,151.6-556.3,154.5-559.9,154.5z"/>
		<path class="st14" d="M-548.5,146.2c0,6.3-5.1,11.4-11.4,11.4s-11.4-5.1-11.4-11.4"/>
		<line class="st14" x1="-559.9" y1="157.6" x2="-559.9" y2="167"/>
		<line class="st14" x1="-570.9" y1="167" x2="-549" y2="167"/>
	</g>
</g>
<g class="st0">
	<g class="st1">
		<linearGradient id="SVGID_6_" gradientUnits="userSpaceOnUse" x1="107.4464" y1="184.5313" x2="107.4464" y2="111.9102">
			<stop  offset="0" style="stop-color:#FFFFFF"/>
			<stop  offset="1" style="stop-color:#E6E6E6"/>
		</linearGradient>
		<path class="st15" d="M-77.7,184.5c-20,0-36.3-16.3-36.3-36.3s16.3-36.3,36.3-36.3h395.9c6,0,10.8,4.8,10.8,10.8v51
			c0,6-4.8,10.8-10.8,10.8H-77.7z"/>
		<path class="st6" d="M318.1,113.4c5.1,0,9.3,4.2,9.3,9.3v51c0,5.1-4.2,9.3-9.3,9.3H-77.7c-19.2,0-34.8-15.6-34.8-34.8v0
			c0-19.2,15.6-34.8,34.8-34.8H318.1 M318.1,110.4H-77.7c-20.8,0-37.8,17-37.8,37.8c0,20.8,17,37.8,37.8,37.8h395.9
			c6.8,0,12.3-5.5,12.3-12.3v-51C330.4,115.9,324.9,110.4,318.1,110.4L318.1,110.4z"/>
	</g>
	<g class="st1">
		<path class="st7" d="M-7.6,179.2c-2.8,0-5-2.2-5-5v-51.5c0-2.8,2.2-5,5-5h325.6c2.8,0,5,2.2,5,5v51.5c0,2.8-2.2,5-5,5H-7.6z"/>
		<path class="st8" d="M318.1,118.7c2.2,0,4,1.8,4,4v51.5c0,2.2-1.8,4-4,4H-7.6c-2.2,0-4-1.8-4-4v-51.5c0-2.2,1.8-4,4-4H318.1
			 M318.1,116.7H-7.6c-3.3,0-6,2.7-6,6v51.5c0,3.3,2.7,6,6,6h325.6c3.3,0,6-2.7,6-6v-51.5C324.1,119.4,321.4,116.7,318.1,116.7
			L318.1,116.7z"/>
	</g>
	<g class="st1">
		<linearGradient id="SVGID_7_" gradientUnits="userSpaceOnUse" x1="-108.3238" y1="148.3557" x2="-46.7834" y2="148.3557">
			<stop  offset="0" style="stop-color:#E9A300"/>
			<stop  offset="1" style="stop-color:#FFCE00"/>
		</linearGradient>
		<path class="st16" d="M-77.6,179.1L-77.6,179.1c-17,0-30.8-13.8-30.8-30.8v0c0-17,13.8-30.8,30.8-30.8h0c17,0,30.8,13.8,30.8,30.8
			v0C-46.8,165.3-60.6,179.1-77.6,179.1z"/>
	</g>
	<g class="st1">
		<linearGradient id="SVGID_8_" gradientUnits="userSpaceOnUse" x1="-30.5531" y1="146.5313" x2="-30.5531" y2="117.6097">
			<stop  offset="0" style="stop-color:#E6E7E8"/>
			<stop  offset="1" style="stop-color:#BBBDBF"/>
		</linearGradient>
		<path class="st17" d="M-24,146.5h-13.1c-1.6,0-3-1.3-3-3v-23c0-1.6,1.3-3,3-3H-24c1.6,0,3,1.3,3,3v23
			C-21.1,145.2-22.4,146.5-24,146.5z"/>
		<text transform="matrix(1 0 0 1 -35.0842 140.3278)" class="st7" style="font-family:'ScriptMTBold'; font-size:28px;">i</text>
	</g>
	<g class="st1">
		<path class="st11" d="M-32.1,178.5c-5.5,0-10-4.5-10-10s4.5-10,10-10s10,4.5,10,10"/>
		<path class="st12" d="M-22.1,171.3l2.9-5.4c0.2-0.4-0.1-0.9-0.5-0.9h-5.8c-0.5,0-0.8,0.5-0.5,0.9l2.9,5.4
			C-22.9,171.8-22.3,171.8-22.1,171.3z"/>
	</g>
	
		<text transform="matrix(1 3.050000e-03 -3.050000e-03 1 -0.8731 140.413)" style="display:inline;fill:#FFCC71; font-family:'Calibri-BoldItalic'; font-size:20px;">No element found</text>
	
		<text transform="matrix(1 3.050000e-03 -3.050000e-03 1 -0.8731 167.413)" style="display:inline;fill:#F2F2F2; font-family:'Calibri'; font-size:20px;">Please try again</text>
	<g id="mic_5_" class="st1">
		<path class="st13" d="M-77.9,154.5L-77.9,154.5c-3.6,0-6.6-3-6.6-6.6v-11.2c0-3.6,3-6.6,6.6-6.6h0c3.6,0,6.6,3,6.6,6.6v11.2
			C-71.3,151.6-74.3,154.5-77.9,154.5z"/>
		<path class="st14" d="M-66.5,146.2c0,6.3-5.1,11.4-11.4,11.4c-6.3,0-11.4-5.1-11.4-11.4"/>
		<line class="st14" x1="-77.9" y1="157.6" x2="-77.9" y2="167"/>
		<line class="st14" x1="-88.9" y1="167" x2="-67" y2="167"/>
	</g>
</g>
<g class="st0">
	<g class="st1">
		<linearGradient id="SVGID_9_" gradientUnits="userSpaceOnUse" x1="589.4464" y1="184.5313" x2="589.4464" y2="111.9102">
			<stop  offset="0" style="stop-color:#FFFFFF"/>
			<stop  offset="1" style="stop-color:#E6E6E6"/>
		</linearGradient>
		<path class="st18" d="M404.3,184.5c-20,0-36.3-16.3-36.3-36.3s16.3-36.3,36.3-36.3h395.9c6,0,10.8,4.8,10.8,10.8v51
			c0,6-4.8,10.8-10.8,10.8H404.3z"/>
		<path class="st6" d="M800.1,113.4c5.1,0,9.3,4.2,9.3,9.3v51c0,5.1-4.2,9.3-9.3,9.3H404.3c-19.2,0-34.8-15.6-34.8-34.8v0
			c0-19.2,15.6-34.8,34.8-34.8H800.1 M800.1,110.4H404.3c-20.8,0-37.8,17-37.8,37.8c0,20.8,17,37.8,37.8,37.8h395.9
			c6.8,0,12.3-5.5,12.3-12.3v-51C812.4,115.9,806.9,110.4,800.1,110.4L800.1,110.4z"/>
	</g>
	<g class="st1">
		<path class="st7" d="M474.4,179.2c-2.8,0-5-2.2-5-5v-51.5c0-2.8,2.2-5,5-5h325.6c2.8,0,5,2.2,5,5v51.5c0,2.8-2.2,5-5,5H474.4z"/>
		<path class="st8" d="M800.1,118.7c2.2,0,4,1.8,4,4v51.5c0,2.2-1.8,4-4,4H474.4c-2.2,0-4-1.8-4-4v-51.5c0-2.2,1.8-4,4-4H800.1
			 M800.1,116.7H474.4c-3.3,0-6,2.7-6,6v51.5c0,3.3,2.7,6,6,6h325.6c3.3,0,6-2.7,6-6v-51.5C806.1,119.4,803.4,116.7,800.1,116.7
			L800.1,116.7z"/>
	</g>
	<g class="st1">
		<path class="st19" d="M404.4,179.1L404.4,179.1c-17,0-30.8-13.8-30.8-30.8v0c0-17,13.8-30.8,30.8-30.8h0c17,0,30.8,13.8,30.8,30.8
			v0C435.2,165.3,421.4,179.1,404.4,179.1z"/>
	</g>
	<g class="st1">
		<linearGradient id="SVGID_10_" gradientUnits="userSpaceOnUse" x1="451.4469" y1="146.5313" x2="451.4469" y2="117.6097">
			<stop  offset="0" style="stop-color:#E6E7E8"/>
			<stop  offset="1" style="stop-color:#BBBDBF"/>
		</linearGradient>
		<path class="st20" d="M458,146.5h-13.1c-1.6,0-3-1.3-3-3v-23c0-1.6,1.3-3,3-3H458c1.6,0,3,1.3,3,3v23
			C460.9,145.2,459.6,146.5,458,146.5z"/>
		<text transform="matrix(1 0 0 1 446.9158 140.3278)" class="st7" style="font-family:'ScriptMTBold'; font-size:28px;">i</text>
	</g>
	<g class="st1">
		<path class="st11" d="M449.9,178.5c-5.5,0-10-4.5-10-10s4.5-10,10-10c5.5,0,10,4.5,10,10"/>
		<path class="st12" d="M459.9,171.3l2.9-5.4c0.2-0.4-0.1-0.9-0.5-0.9h-5.8c-0.5,0-0.8,0.5-0.5,0.9l2.9,5.4
			C459.1,171.8,459.7,171.8,459.9,171.3z"/>
	</g>
	
		<text transform="matrix(1 3.050000e-03 -3.050000e-03 1 481.1269 140.413)" style="display:inline;fill:#FF7A69; font-family:'Calibri-BoldItalic'; font-size:20px;">Your browser is not supported</text>
	
		<text transform="matrix(1 3.050000e-03 -3.050000e-03 1 481.1269 167.413)" style="display:inline;fill:#F2F2F2; font-family:'Calibri'; font-size:20px;">Please update your browser</text>
	<g id="mic_6_" class="st1">
		<path class="st13" d="M404.1,154.5L404.1,154.5c-3.6,0-6.6-3-6.6-6.6v-11.2c0-3.6,3-6.6,6.6-6.6l0,0c3.6,0,6.6,3,6.6,6.6v11.2
			C410.7,151.6,407.7,154.5,404.1,154.5z"/>
		<path class="st14" d="M415.5,146.2c0,6.3-5.1,11.4-11.4,11.4s-11.4-5.1-11.4-11.4"/>
		<line class="st14" x1="404.1" y1="157.6" x2="404.1" y2="167"/>
		<line class="st14" x1="393.1" y1="167" x2="415" y2="167"/>
	</g>
	<line class="st21" x1="380.4" y1="162" x2="425.4" y2="129"/>
	<line class="st22" x1="388" y1="157.9" x2="419" y2="134.9"/>
</g>
<g id="mic_1_" class="st0">
	<path class="st23" d="M25,32.6L25,32.6c-4.7,0-8.4-3.8-8.4-8.4V9.9c0-4.7,3.8-8.4,8.4-8.4h0c4.7,0,8.4,3.8,8.4,8.4v14.3
		C33.4,28.9,29.7,32.6,25,32.6z"/>
	<path class="st24" d="M39.6,22c0,8.1-6.5,14.6-14.6,14.6S10.4,30,10.4,22"/>
	<line class="st24" x1="25" y1="36.6" x2="25" y2="48.5"/>
	<line class="st24" x1="11" y1="48.5" x2="39" y2="48.5"/>
</g>
<rect x="0" y="0" class="st25" width="50" height="50"/>
<line class="st26" x1="1.1" y1="41.6" x2="46.1" y2="8.6"/>
<line class="st27" x1="5.4" y1="40.5" x2="43.5" y2="12.1"/>
<g class="st0">
	<line class="st28" x1="10.5" y1="25" x2="39.5" y2="25"/>
</g>
<g class="st0">
	<linearGradient id="SVGID_11_" gradientUnits="userSpaceOnUse" x1="13.7591" y1="6.3464" x2="13.7591" y2="49.6563">
		<stop  offset="0" style="stop-color:#2B388F"/>
		<stop  offset="1.846123e-02" style="stop-color:#2B3E93"/>
		<stop  offset="0.1384" style="stop-color:#2B5FAC"/>
		<stop  offset="0.2671" style="stop-color:#2A7BC0"/>
		<stop  offset="0.4055" style="stop-color:#2A91CF"/>
		<stop  offset="0.5581" style="stop-color:#2AA0DA"/>
		<stop  offset="0.7361" style="stop-color:#2AA9E0"/>
		<stop  offset="1" style="stop-color:#2AACE2"/>
	</linearGradient>
	<path class="st29" d="M27.1,49.2c0-0.2-0.1-0.3-0.3-0.4C16.4,46,8.7,36.4,8.7,25c0-7.5,3.3-14.2,8.6-18.7c0,0,0,0,0,0
		c-4,0.3-8,1.6-11.5,3.9c-0.6,0.4-1.1,0.9-1.5,1.5C2,15.2,0.6,19.4,0.4,23.9c-0.6,14.5,11.4,26.4,25.9,25.7c0.2,0,0.3,0,0.5,0
		C27,49.6,27.2,49.4,27.1,49.2L27.1,49.2z"/>
	<g class="st1">
		<linearGradient id="SVGID_12_" gradientUnits="userSpaceOnUse" x1="7.3546" y1="12.7205" x2="43.7586" y2="12.7205">
			<stop  offset="0" style="stop-color:#2AACE2"/>
			<stop  offset="0.2639" style="stop-color:#2AA9E0"/>
			<stop  offset="0.4419" style="stop-color:#2AA0DA"/>
			<stop  offset="0.5945" style="stop-color:#2A91CF"/>
			<stop  offset="0.7329" style="stop-color:#2A7BC0"/>
			<stop  offset="0.8616" style="stop-color:#2B5FAC"/>
			<stop  offset="0.9815" style="stop-color:#2B3E93"/>
			<stop  offset="1" style="stop-color:#2B388F"/>
		</linearGradient>
		<path class="st30" d="M7.6,7.6C7.6,7.6,7.6,7.6,7.6,7.6C7,8.2,7.7,9.1,8.4,8.8c9.2-4.5,20.6-2.9,28.2,4.7
			c3.3,3.3,5.5,7.3,6.5,11.5c1.6-6.4,0.5-13.3-3.1-19c-0.5-0.7-1.1-1.3-1.8-1.8C28.7-1.8,15.9-0.7,7.6,7.6z"/>
		<path class="st31" d="M39.2,45.1C39.2,45.1,39.2,45.1,39.2,45.1C39.2,45.1,39.2,45.1,39.2,45.1C39.2,45.1,39.2,45.1,39.2,45.1z"/>
	</g>
	<g class="st1">
		<linearGradient id="SVGID_13_" gradientUnits="userSpaceOnUse" x1="33.4431" y1="49.2028" x2="33.4431" y2="7.3781">
			<stop  offset="0" style="stop-color:#2B388F"/>
			<stop  offset="1.846123e-02" style="stop-color:#2B3E93"/>
			<stop  offset="0.1384" style="stop-color:#2B5FAC"/>
			<stop  offset="0.2671" style="stop-color:#2A7BC0"/>
			<stop  offset="0.4055" style="stop-color:#2A91CF"/>
			<stop  offset="0.5581" style="stop-color:#2AA0DA"/>
			<stop  offset="0.7361" style="stop-color:#2AA9E0"/>
			<stop  offset="1" style="stop-color:#2AACE2"/>
		</linearGradient>
		<path class="st32" d="M42.4,7.6C42.4,7.6,42.4,7.6,42.4,7.6c-0.6-0.6-1.5,0.1-1.1,0.8c4.5,9.2,2.9,20.6-4.7,28.2
			c-5.3,5.3-12.4,7.7-19.3,7.1c3,2.6,6.6,4.5,10.6,5.4c0.8,0.2,1.6,0.2,2.4,0c4.4-1,8.6-3.2,12.1-6.6C52,32.8,52,17.2,42.4,7.6z"/>
	</g>
</g>
<path class="st33" d="M42.5,38.2H7.5c-1.8,0-3.3-1.5-3.3-3.3V15.2c0-1.8,1.5-3.3,3.3-3.3h34.9c1.8,0,3.3,1.5,3.3,3.3v19.7
	C45.8,36.7,44.3,38.2,42.5,38.2z"/>
<g class="st0">
	<path class="st34" d="M25,14.7L25,14.7c-2,0-3.6-1.6-3.6-3.6v0c0-2,1.6-3.6,3.6-3.6h0c2,0,3.6,1.6,3.6,3.6v0
		C28.6,13.1,27,14.7,25,14.7z"/>
	<path class="st34" d="M25,28.7L25,28.7c-2,0-3.6-1.6-3.6-3.6v0c0-2,1.6-3.6,3.6-3.6h0c2,0,3.6,1.6,3.6,3.6v0
		C28.6,27,27,28.7,25,28.7z"/>
	<path class="st34" d="M25,42.6L25,42.6c-2,0-3.6-1.6-3.6-3.6v0c0-2,1.6-3.6,3.6-3.6h0c2,0,3.6,1.6,3.6,3.6v0
		C28.6,41,27,42.6,25,42.6z"/>
</g>
<g>
	<path class="st35" d="M30.4,18.4c5,0,9.1,4.1,9.1,9.1v0c0,5-4.1,9.1-9.1,9.1H19.6c-5,0-9.1-4.1-9.1-9.1v0c0-5,4.1-9.1,9.1-9.1h5"/>
	<polyline class="st35" points="19.9,23.5 25,18.4 25,18.5 19.9,13.4 	"/>
</g>
</svg>
